<svg id="Layer_1" data-name="Layer 1" xmlns="http://www.w3.org/2000/svg" width="402.92" height="100.68" viewBox="0 0 402.92 100.68">
  <path id="Path_20" data-name="Path 20" d="M392.36,72.61h0c-5.82,0-10.54-3.54-10.54-7.9V7.9c0-4.36,4.72-7.9,10.54-7.9s10.55,3.54,10.55,7.9V64.71c0,4.36-4.72,7.9-10.55,7.9" fill="#3e3e3e"/>
  <path id="Path_21" data-name="Path 21" d="M392.36,100.68a10.55,10.55,0,1,0-10.54-10.56h0a10.56,10.56,0,0,0,10.54,10.55" fill="#3e3e3e"/>
  <path id="Path_22" data-name="Path 22" d="M49.56,38.61A10.7,10.7,0,1,0,28.169,38h0V49.32H39.5A10.71,10.71,0,0,0,49.56,38.63" fill="#3cb879"/>
  <path id="Path_23" data-name="Path 23" d="M10.7,98.35h0A10.7,10.7,0,0,1,0,87.65v-77a10.71,10.71,0,0,1,21.41,0v77A10.71,10.71,0,0,1,10.7,98.35" fill="#3e3e3e"/>
  <path id="Path_24" data-name="Path 24" d="M265.81,98.35h0a10.7,10.7,0,0,1-10.7-10.7h0v-77a10.71,10.71,0,0,1,21.41,0v77a10.71,10.71,0,0,1-10.71,10.7" fill="#3e3e3e"/>
  <path id="Path_25" data-name="Path 25" d="M32.61,58.17h0a10.71,10.71,0,0,1,14.92,2.57L62.38,81.79a10.71,10.71,0,0,1-17.5,12.34L30,73.08a10.7,10.7,0,0,1,2.58-14.91" fill="#3e3e3e"/>
  <path id="Path_26" data-name="Path 26" d="M148.62,54a29.651,29.651,0,0,0-1.51-6.16,23.58,23.58,0,0,0-5.87-8.91A27.77,27.77,0,0,0,131.37,33a40.33,40.33,0,0,0-13.91-2.17,43.54,43.54,0,0,0-10.84,1.38V10.84a10.71,10.71,0,0,0-21.41,0v77a10.71,10.71,0,0,0,21.41,0V61.33q0-4.81,2.36-7.5c1.57-1.79,5.21-2.69,8.1-2.69s6.62.9,8.19,2.69,2.36,4.29,2.36,7.5V87.79a10.7,10.7,0,0,0,21.4,0v-31a10.58,10.58,0,0,0-.41-2.79" fill="#3e3e3e"/>
  <path id="Path_27" data-name="Path 27" d="M223.56,28.79A10.73,10.73,0,0,0,212.85,39.5V69.13c0,3.2-.78,5.7-2.36,7.49s-5.2,2.69-8.09,2.69-6.62-.9-8.19-2.69-2.36-4.29-2.36-7.49V39.5a10.71,10.71,0,1,0-21.41-.65c0,.21,0,.43,0,.65V71.58a31.27,31.27,0,0,0,1.93,11.08,23.65,23.65,0,0,0,5.87,8.91,28.11,28.11,0,0,0,9.86,5.94A40.79,40.79,0,0,0,202,99.67a41.36,41.36,0,0,0,14-2.16,29.13,29.13,0,0,0,10.06-5.94,24.78,24.78,0,0,0,6.11-8.91,29.41,29.41,0,0,0,2.07-11.08V39.5a10.71,10.71,0,0,0-10.7-10.71" fill="#3e3e3e"/>
  <path id="Path_28" data-name="Path 28" d="M362,45.81a23.58,23.58,0,0,0-5.87-8.91,28.15,28.15,0,0,0-9.87-5.9,40.57,40.57,0,0,0-13.91-2.17,41.37,41.37,0,0,0-14,2.17,29.13,29.13,0,0,0-10.06,5.94,24.57,24.57,0,0,0-6.11,8.91,29.379,29.379,0,0,0-2.08,11.08V89a10.71,10.71,0,0,0,21.41,0V59.34q0-4.8,2.36-7.49c1.57-1.8,5.21-2.69,8.1-2.69s6.62.89,8.19,2.69,2.36,4.29,2.36,7.49V61.6a10.7,10.7,0,0,0,0,21.39v6a10.7,10.7,0,1,0,21.4,0V56.89A31.478,31.478,0,0,0,362,45.81" fill="#3e3e3e"/>
</svg>
